HIERARCHY
ROOT SpineBase
{
  OFFSET 0.000000 0.000000 0.000000
  CHANNELS 6 Xposition Yposition Zposition Zrotation Xrotation Yrotation
  JOINT SpineMid
  {
    OFFSET 0.000000 34.087197 -0.000000
    CHANNELS 3 Zrotation Xrotation Yrotation
    JOINT SpineShoulder
    {
      OFFSET -0.556994 25.159974 -0.346643
      CHANNELS 3 Zrotation Xrotation Yrotation
      JOINT Neck
      {
        OFFSET -0.263681 8.274077 -0.442287
        CHANNELS 3 Zrotation Xrotation Yrotation
        JOINT Head
        {
          OFFSET -2.306130 12.240510 4.673487
          CHANNELS 3 Zrotation Xrotation Yrotation
          End Site
          {
            OFFSET 0 0 0
          }
        }
      }
      JOINT ShoulderLeft
      {
        OFFSET -12.211986 -8.236698 -14.942933
        CHANNELS 3 Zrotation Xrotation Yrotation
        JOINT ElbowLeft
        {
          OFFSET -0.496947 -24.618720 -4.228890
          CHANNELS 3 Zrotation Xrotation Yrotation
          JOINT WristLeft
          {
            OFFSET -1.097110 -15.669321 21.649711
            CHANNELS 3 Zrotation Xrotation Yrotation
            JOINT HandLeft
            {
              OFFSET -1.110759 -4.290981 -2.751540
              CHANNELS 3 Zrotation Xrotation Yrotation
              JOINT HandTipLeft
              {
                OFFSET -2.078210 -6.441861 1.007384
                CHANNELS 3 Zrotation Xrotation Yrotation
                End Site
                {
                  OFFSET 0 0 0
                }
              }
              JOINT ThumbLeft
              {
                OFFSET -0.256672 6.421510 2.177678
                CHANNELS 3 Zrotation Xrotation Yrotation
                End Site
                {
                  OFFSET 0 0 0
                }
              }
            }
          }
        }
      }
      JOINT ShoulderRight
      {
        OFFSET 0.192601 -7.349422 -14.067735
        CHANNELS 3 Zrotation Xrotation Yrotation
        JOINT ElbowRight
        {
          OFFSET -6.129470 -26.541655 -6.963831
          CHANNELS 3 Zrotation Xrotation Yrotation
          JOINT WristRight
          {
            OFFSET -5.796523 -27.196801 2.412699
            CHANNELS 3 Zrotation Xrotation Yrotation
            JOINT HandRight
            {
              OFFSET 1.299367 -4.052455 1.876652
              CHANNELS 3 Zrotation Xrotation Yrotation
              JOINT HandTipRight
              {
                OFFSET -3.973531 -5.511496 -3.925810
                CHANNELS 3 Zrotation Xrotation Yrotation
                End Site
                {
                  OFFSET 0 0 0
                }
              }
              JOINT ThumbRight
              {
                OFFSET 5.928893 1.193835 -0.278980
                CHANNELS 3 Zrotation Xrotation Yrotation
                End Site
                {
                  OFFSET 0 0 0
                }
              }
            }
          }
        }
      }
    }
  }
  JOINT HipLeft
  {
    OFFSET -8.062227 1.989930 0.015159
    CHANNELS 3 Zrotation Xrotation Yrotation
    JOINT KneeLeft
    {
      OFFSET 17.017112 -40.491659 12.253495
      CHANNELS 3 Zrotation Xrotation Yrotation
      JOINT AnkleLeft
      {
        OFFSET 8.669536 -43.832808 -1.536279
        CHANNELS 3 Zrotation Xrotation Yrotation
        JOINT FootLeft
        {
          OFFSET -8.489038 -6.787974 -7.368033
          CHANNELS 3 Zrotation Xrotation Yrotation
          End Site
          {
            OFFSET 0 0 0
          }
        }
      }
    }
  }
  JOINT HipRight
  {
    OFFSET 6.049376 -0.046099 -7.585311
    CHANNELS 3 Zrotation Xrotation Yrotation
    JOINT KneeRight
    {
      OFFSET -0.274470 -46.728149 3.268627
      CHANNELS 3 Zrotation Xrotation Yrotation
      JOINT AnkleRight
      {
        OFFSET 0.544056 -38.275698 4.063620
        CHANNELS 3 Zrotation Xrotation Yrotation
        JOINT FootRight
        {
          OFFSET -0.008026 -3.987445 -14.554145
          CHANNELS 3 Zrotation Xrotation Yrotation
          End Site
          {
            OFFSET 0 0 0
          }
        }
      }
    }
  }
}
MOTION
Frames: 8
Frame Time: 0.033333
65.393483 92.869075 289.468942 0.864775 1.306334 26.452099 -1.356253 -0.784161 -26.471240 -0.000000 0.000000 0.000000 -1.242866 -1.331628 0.210579 0.000000 0.000000 0.000000 -0.189009 1.796590 -0.000835 0.426074 -2.937875 0.417797 -2.413525 1.898132 0.860124 3.770726 1.502806 -1.706831 0.000000 0.000000 0.000000 0.000000 0.000000 0.000000 -0.000000 0.000000 0.000000 -0.000000 0.000000 0.000000 0.130963 -1.609189 -0.450416 -7.328065 -1.298515 7.467232 0.000000 0.000000 0.000000 0.000000 0.000000 0.000000 3.902810 4.628225 -22.891380 -8.321925 -15.612924 -6.652581 2.412870 12.160801 0.054546 0.000000 0.000000 0.000000 -1.356253 -0.784161 -26.471240 -0.000000 0.000000 0.000000 -0.310204 0.090232 1.129021 0.000000 0.000000 0.000000
65.427550 92.835904 289.376784 0.941508 1.476795 26.463183 -1.501109 -0.902232 -26.487138 -0.000000 0.000000 0.000000 -1.309757 -1.287074 0.244459 0.000000 0.000000 0.000000 -0.184515 1.872667 -0.003085 0.411062 -3.006488 0.405006 -3.026039 1.231102 1.442281 4.739463 2.092350 -2.256508 0.000000 0.000000 0.000000 0.000000 0.000000 0.000000 -0.000000 0.000000 0.000000 -0.000000 0.000000 0.000000 -0.043929 -1.584996 -0.525884 -6.688315 -0.436582 6.619387 0.000000 0.000000 0.000000 0.000000 0.000000 0.000000 3.705973 4.420611 -22.937586 -8.282263 -15.570020 -6.602097 1.501258 12.805513 0.412838 0.000000 0.000000 0.000000 -1.501109 -0.902232 -26.487138 -0.000000 0.000000 0.000000 -0.387835 0.101428 1.411100 0.000000 0.000000 0.000000
65.480817 92.780998 289.261399 1.030987 1.656045 26.497505 -1.661770 -1.021733 -26.527224 -0.000000 0.000000 0.000000 -1.242083 -1.343189 0.207977 0.000000 0.000000 0.000000 -0.179766 1.943166 -0.005284 0.369163 -2.998405 0.349931 -3.538080 1.312760 1.812704 5.308696 3.553510 -3.127602 0.000000 0.000000 0.000000 0.000000 0.000000 0.000000 0.731355 0.266471 -0.255350 -0.730168 -0.269706 0.251931 -0.503944 -1.390223 -0.682386 -5.068088 0.173251 5.416188 0.000000 0.000000 0.000000 0.000000 0.000000 0.000000 3.500219 4.163060 -23.015944 -8.292606 -15.468449 -6.538634 0.843796 12.150809 2.001569 0.000000 0.000000 0.000000 -1.661770 -1.021733 -26.527224 -0.000000 0.000000 0.000000 -0.477726 0.111615 1.737620 0.000000 0.000000 0.000000
65.700971 92.663875 288.929236 1.335856 2.096973 26.408140 -2.129566 -1.283243 -26.456441 -0.000000 0.000000 0.000000 -1.143897 -1.352939 0.169428 0.000000 0.000000 0.000000 -0.173904 2.004922 -0.007537 0.301902 -2.915402 0.256100 -3.653890 1.482686 1.934762 5.151252 1.439915 -2.550754 0.000000 0.000000 0.000000 0.000000 0.000000 0.000000 0.760981 0.299491 -0.271046 -0.759566 -0.303061 0.267049 -0.575950 -1.232212 -0.665771 -3.056079 -1.234609 4.969686 0.000000 0.000000 0.000000 0.000000 0.000000 0.000000 2.758573 3.604238 -23.102367 -8.222539 -15.169694 -6.313337 1.564271 11.735392 1.875694 0.000000 0.000000 0.000000 -2.917966 -1.903387 -26.503042 0.428756 0.906559 0.021287 -0.565068 0.144907 2.053214 0.000000 0.000000 0.000000
65.985110 92.532840 288.536573 1.689654 2.552552 26.210998 -2.644132 -1.542341 -26.284242 -0.000000 0.000000 0.000000 -1.118853 -1.348219 0.161034 0.000000 0.000000 0.000000 -0.168610 2.046112 -0.009304 0.169050 -2.046076 0.015334 -3.596681 0.631437 2.138271 4.855836 1.492841 -2.661361 0.000000 0.000000 0.000000 0.000000 0.000000 0.000000 0.807613 0.327628 -0.290125 -0.805957 -0.331680 0.285483 -0.495848 -1.240093 -0.630334 -0.144888 -1.683970 3.230322 0.000000 0.000000 0.000000 0.000000 0.000000 0.000000 1.876670 3.021531 -23.137059 -8.008326 -14.880246 -6.033716 -0.280614 12.857484 2.868896 0.000000 0.000000 0.000000 -3.936561 -2.398395 -26.375234 0.777596 1.340392 0.037456 -0.639745 0.182370 2.321907 0.000000 0.000000 0.000000
66.243159 92.416094 288.129325 1.975019 2.979899 26.087245 -2.309205 -1.162930 -26.141108 -0.413426 -0.918811 -0.029351 -1.165644 -1.354903 0.177142 0.000000 0.000000 0.000000 -0.243660 1.998409 0.005744 0.243607 -1.998415 0.002755 -3.174808 1.038330 1.773150 3.988515 2.918329 -2.937851 0.000000 0.000000 0.000000 0.000000 0.000000 0.000000 0.828810 0.341244 -0.299001 -0.827033 -0.345529 0.294039 0.009185 -1.435258 -0.453210 1.808827 -1.961667 1.677293 0.000000 0.000000 0.000000 0.000000 0.000000 0.000000 1.346775 2.628922 -23.085484 -7.900826 -15.309993 -6.074919 -0.547866 9.487902 7.848562 0.000000 0.000000 0.000000 -4.895989 -2.939225 -26.329937 1.120056 1.817519 0.049965 -0.696068 0.218370 2.523568 0.000000 0.000000 0.000000
66.311998 92.351729 287.964637 2.011090 3.076112 25.975361 -2.159850 -1.078784 -26.022334 -0.542899 -1.159092 -0.038631 -1.246480 -1.356500 0.206955 0.000000 0.000000 0.000000 -0.257519 1.990607 0.008498 0.257380 -1.990625 0.000448 -2.788075 0.678420 1.612676 2.788212 2.411977 -2.614962 0.000000 0.000000 0.000000 0.000000 0.000000 0.000000 0.884325 0.346874 -0.315122 -0.882421 -0.351691 0.309737 0.484250 -1.464560 -0.237448 3.321378 -0.887233 -0.813431 0.000000 0.000000 0.000000 0.000000 0.000000 0.000000 1.119291 2.381892 -23.079778 -8.464518 -14.657397 -5.921621 1.901208 9.534129 5.237136 0.000000 0.000000 0.000000 -5.156723 -3.134870 -26.243825 1.240302 2.006052 0.053331 -0.736179 0.231190 2.667940 0.000000 0.000000 0.000000
66.354723 92.267957 287.713694 2.012761 3.290056 25.586490 -2.056300 -1.103321 -25.630671 -0.635751 -1.405557 -0.047673 -1.267554 -1.301317 0.225852 0.000000 0.000000 0.000000 -0.149123 2.083097 -0.013684 0.149719 -2.083054 0.019117 -2.974962 0.054104 1.882096 3.316981 3.175012 -2.930994 0.000000 0.000000 0.000000 0.000000 0.000000 0.000000 0.937689 0.347688 -0.329530 -0.935692 -0.353029 0.323802 0.934463 -1.768747 -0.118835 2.558478 -0.445709 -0.813251 0.000000 0.000000 0.000000 0.000000 0.000000 0.000000 0.401043 1.551300 -23.109924 -8.243582 -12.931594 -5.128858 5.615943 8.607810 1.072476 0.000000 0.000000 0.000000 -5.400133 -3.540686 -25.888707 1.314493 2.241595 0.053143 -0.770947 0.255875 2.791853 0.000000 0.000000 0.000000
